# xmcd CD database file
#
# Track frame offsets:
#	150
#	12112
#	25437
#	37952
#	49932
#	60887
#	72480
#	85929
#	96627
#	111182
#	127515
#	132017
#	136752
#	150300
#	162995
#
# Disc length: 2355 seconds
#
# Revision: 1
# Processed by: cddbd v1.5.2PL0 Copyright (c) Steve Scherf et al.
# Submitted via: CDex 1.51
#
DISCID=b809310f
DTITLE=The Platters - Only You
DYEAR=1960
DGENRE=Britpop
TTITLE0=The Great Pretender
TTITLE1=My Prayer
TTITLE2=Twilight Time
TTITLE3=Remember When
TTITLE4=Smoke Gets in Your Eyes
TTITLE5=Only You
TTITLE6=He's Mine
TTITLE7=Red Sails in the Sunset
TTITLE8=Harbor Lights
TTITLE9=Old Man River
TTITLE10=Heaven on Earth
TTITLE11=(You've Got) The Magic Touch
TTITLE12=Sunday with You
TTITLE13=Crying in the Chapel
TTITLE14=Tell the World
EXTD=YEAR: 1960
EXTT0=
EXTT1=
EXTT2=
EXTT3=
EXTT4=
EXTT5=
EXTT6=
EXTT7=
EXTT8=
EXTT9=
EXTT10=
EXTT11=
EXTT12=
EXTT13=
EXTT14=
PLAYORDER=
